<svg id="Grupo_1" data-name="Grupo 1" xmlns="http://www.w3.org/2000/svg" xmlns:xlink="http://www.w3.org/1999/xlink" width="236.717" height="180.545" viewBox="0 0 236.717 180.545">
  <defs>
    <clipPath id="clip-path">
      <rect id="Rectángulo_61" data-name="Rectángulo 61" width="236.717" height="180.545" fill="none"/>
    </clipPath>
  </defs>
  <g id="Grupo_234" data-name="Grupo 234" clip-path="url(#clip-path)">
    <path id="Trazado_253" data-name="Trazado 253" d="M117.345,0a90.2,90.2,0,1,0,90.2,90.2A90.2,90.2,0,0,0,117.345,0" transform="translate(0.629)" fill="#49b3ba"/>
    <path id="Trazado_254" data-name="Trazado 254" d="M117.721.149a90.2,90.2,0,1,0,90.2,90.2,90.2,90.2,0,0,0-90.2-90.2m0,173.34a83.143,83.143,0,1,1,83.143-83.144,83.144,83.144,0,0,1-83.143,83.144" transform="translate(0.637 0.003)" fill="#2f9aa1"/>
    <path id="Trazado_255" data-name="Trazado 255" d="M210.786,76.672A27.852,27.852,0,0,1,225.12,48.261l-4.266-30.084L199.97,21.138a2.731,2.731,0,0,1-5.379.762l-2.174.308a2.731,2.731,0,0,1-5.379.763l-2.174.307a2.73,2.73,0,0,1-5.378.763l-2.174.308a2.731,2.731,0,0,1-5.379.762l-2.174.308a2.73,2.73,0,0,1-5.378.762l-2.174.309a2.73,2.73,0,0,1-5.378.762l-2.174.309a2.731,2.731,0,0,1-5.379.762l-2.174.308a2.731,2.731,0,0,1-5.379.762l-2.174.309a2.73,2.73,0,0,1-5.378.762L132,30.775a2.731,2.731,0,0,1-5.379.762l-2.174.307a2.73,2.73,0,0,1-5.378.763l-2.174.308a2.731,2.731,0,0,1-5.379.762l-2.174.308a2.731,2.731,0,0,1-5.378.763l-2.174.308a2.731,2.731,0,0,1-5.379.762l-2.174.309a2.73,2.73,0,0,1-5.378.762l-2.174.308a2.731,2.731,0,0,1-5.379.762l-2.174.309a2.73,2.73,0,0,1-5.378.762l-2.174.309A2.731,2.731,0,0,1,66.2,40.1l-2.174.308a2.73,2.73,0,0,1-5.378.762l-2.174.308a2.731,2.731,0,0,1-5.379.763l-2.174.307a2.73,2.73,0,0,1-5.378.763l-2.174.308a2.731,2.731,0,0,1-5.379.762l-2.174.309a2.731,2.731,0,0,1-5.379.762l-2.174.308a2.73,2.73,0,0,1-5.378.762L0,49.489,4.266,79.573a27.853,27.853,0,0,1,21.665,23.307A27.854,27.854,0,0,1,11.6,131.29l4.266,30.084,20.884-2.96a2.731,2.731,0,0,1,5.379-.763l2.174-.308a2.731,2.731,0,0,1,5.379-.762l2.174-.308a2.73,2.73,0,0,1,5.378-.763L59.4,155.2a2.731,2.731,0,0,1,5.379-.762l2.174-.309a2.73,2.73,0,0,1,5.378-.762l2.174-.308a2.731,2.731,0,0,1,5.379-.762l2.174-.309a2.73,2.73,0,0,1,5.378-.762l2.174-.309a2.731,2.731,0,0,1,5.379-.762l2.174-.307a2.73,2.73,0,0,1,5.378-.763l2.174-.308a2.731,2.731,0,0,1,5.379-.762l2.174-.309a2.73,2.73,0,0,1,5.378-.762l2.174-.308a2.731,2.731,0,0,1,5.379-.762l2.174-.309a2.73,2.73,0,0,1,5.378-.762l2.174-.308a2.731,2.731,0,0,1,5.379-.763l2.174-.308a2.73,2.73,0,0,1,5.378-.762l2.174-.309a2.731,2.731,0,0,1,5.379-.762l2.174-.308a2.731,2.731,0,0,1,5.379-.762l2.174-.308a2.73,2.73,0,0,1,5.378-.763l2.174-.308a2.73,2.73,0,0,1,5.378-.762l2.174-.308a2.731,2.731,0,0,1,5.379-.762L187.8,137a2.73,2.73,0,0,1,5.378-.762l2.174-.308a2.731,2.731,0,0,1,5.379-.763l2.174-.308a2.731,2.731,0,0,1,5.379-.762l2.174-.309a2.73,2.73,0,0,1,5.378-.762l20.885-2.96-4.266-30.086a27.849,27.849,0,0,1-21.665-23.306" transform="translate(0 0.421)" fill="#0082bf"/>
    <path id="Trazado_256" data-name="Trazado 256" d="M192.987,92.142h0l-8.094,1.148h0a2.007,2.007,0,0,0-1.692,2.267l1.147,8.094a2.009,2.009,0,0,0,2.256,1.709l8.094-1.148h0a2.007,2.007,0,0,0,1.692-2.267l-1.147-8.093a2.008,2.008,0,0,0-2.256-1.709" transform="translate(4.242 2.134)" fill="#fcae00"/>
    <path id="Trazado_257" data-name="Trazado 257" d="M179.041,95.291l-14.229,2.018h0l0-.01a19.368,19.368,0,0,1-14.4-3.707c-3.864-2.96-28.961-31.509-28.961-31.509v0a2.031,2.031,0,0,0-1.714-.565l-10.085,1.43a2.034,2.034,0,0,0-1.576,1.19c-1.057,1.941-19.237,35.309-22.042,39.112a19.376,19.376,0,0,1-12.8,7.575v0A15.292,15.292,0,0,1,67.166,80.9a2.039,2.039,0,0,0,1.5-2.208l-1.159-8.179a2.04,2.04,0,0,0-2.292-1.72,27.5,27.5,0,0,0,9.717,54.1c8.645-1.226,16.531-6.048,20.839-12.3,3.666-5.322,16.033-27.828,19.638-34.42.223-.389.57-.887,1.027-.952a1.712,1.712,0,0,1,1.306.678c4.686,5.409,20.364,23.377,25.341,27.452,5.864,4.8,14.753,7.239,23.38,6.032v0s14.14-2.005,14.285-2.025a2.035,2.035,0,0,0,1.736-2.3h0l-1.14-8.039a2.038,2.038,0,0,0-2.307-1.731" transform="translate(1.009 1.424)" fill="#fff"/>
  </g>
</svg>
